<svg width="494" height="220" viewBox="0 0 494 220" fill="none" xmlns="http://www.w3.org/2000/svg">
<path d="M490.786 75.678C489.068 73.965 486.885 73.11 484.216 73.11H127.907V9.15699C127.907 5.34799 126.095 2.58999 122.483 0.876989C118.862 -0.644011 115.531 -0.0720139 112.488 2.58999L2.853 103.658C0.95 105.564 0 107.848 0 110.511C0 112.985 0.95 115.176 2.853 117.078L112.489 217.006C115.535 219.48 118.866 219.962 122.484 218.433C126.096 216.913 127.908 214.155 127.908 210.155V146.202H484.223C486.886 146.202 489.077 145.343 490.787 143.635C492.498 141.924 493.353 139.738 493.353 137.072V82.251C493.356 79.586 492.497 77.393 490.786 75.678Z" fill="white"/>
</svg>
